this is the Opening Theme in Full HD 1080i 

Source: Game.of.Thrones.S03E01.1080i.HDTV.MPEG2.DD5.1-CtrlHD

Format                           : MPEG-TS
File size                        : 161 MiB
Duration                         : 1mn 50s
Overall bit rate mode            : Variable
Overall bit rate                 : 12.2 Mbps

Video
ID                               : 33 (0x21)
Menu ID                          : 1 (0x1)
Format                           : MPEG Video
Format version                   : Version 2
Format profile                   : Main@High
Format settings, BVOP            : Yes
Format settings, Matrix          : Custom
Codec ID                         : 2
Duration                         : 1mn 50s
Bit rate mode                    : Variable
Bit rate                         : 11.2 Mbps
Maximum bit rate                 : 24.0 Mbps
Width                            : 1 920 pixels
Height                           : 1 080 pixels
Display aspect ratio             : 16:9
Frame rate                       : 29.970 fps
Color space                      : YUV
Chroma subsampling               : 4:2:0
Bit depth                        : 8 bits
Compression mode                 : Lossy
Bits/(Pixel*Frame)               : 0.180
Stream size                      : 147 MiB (92%)

Audio
ID                               : 36 (0x24)
Menu ID                          : 1 (0x1)
Format                           : AC-3
Format/Info                      : Audio Coding 3
Mode extension                   : CM (complete main)
Codec ID                         : 129
Duration                         : 1mn 50s
Bit rate mode                    : Constant
Bit rate                         : 384 Kbps
Channel(s)                       : 6 channels
Channel positions                : Front: L C R, Side: L R, LFE
Sampling rate                    : 48.0 KHz
Bit depth                        : 16 bits
Compression mode                 : Lossy
Stream size                      : 5.06 MiB (3%)
Language                         : English

Text #1
ID                               : 33 (0x21)-608-1
Menu ID                          : 1 (0x1)
Format                           : EIA-608
Muxing mode                      : A/53 / DTVCC Transport
Muxing mode, more info           : Muxed in Video #1
Duration                         : 1mn 50s
Bit rate mode                    : Constant
Stream size                      : 0.00 Byte (0%)

Text #2
ID                               : 33 (0x21)-608-2
Menu ID                          : 1 (0x1)
Format                           : EIA-608
Muxing mode                      : A/53 / DTVCC Transport
Muxing mode, more info           : Muxed in Video #1
Duration                         : 1mn 50s
Bit rate mode                    : Constant
Stream size                      : 0.00 Byte (0%)

Text #3
ID                               : 33 (0x21)-1
Menu ID                          : 1 (0x1)
Format                           : EIA-708
Muxing mode                      : A/53 / DTVCC Transport
Muxing mode, more info           : Muxed in Video #1
Duration                         : 1mn 50s
Bit rate mode                    : Constant
Stream size                      : 0.00 Byte (0%)
